<svg width="24" height="24" viewBox="0 0 24 24" fill="none" xmlns="http://www.w3.org/2000/svg">
<path d="M2.586 17.414C2.2109 17.789 2.00011 18.2976 2 18.828V21C2 21.2652 2.10536 21.5196 2.29289 21.7071C2.48043 21.8946 2.73478 22 3 22H6C6.26522 22 6.51957 21.8946 6.70711 21.7071C6.89464 21.5196 7 21.2652 7 21V20C7 19.7348 7.10536 19.4804 7.29289 19.2929C7.48043 19.1054 7.73478 19 8 19H9C9.26522 19 9.51957 18.8946 9.70711 18.7071C9.89464 18.5196 10 18.2652 10 18V17C10 16.7348 10.1054 16.4804 10.2929 16.2929C10.4804 16.1054 10.7348 16 11 16H11.172C11.7024 15.9999 12.211 15.7891 12.586 15.414L13.4 14.6C14.7898 15.0841 16.3028 15.0823 17.6915 14.5948C19.0801 14.1072 20.2622 13.1628 21.0444 11.9161C21.8265 10.6694 22.1624 9.19417 21.9971 7.73174C21.8318 6.2693 21.1751 4.90625 20.1344 3.86557C19.0937 2.82489 17.7307 2.16818 16.2683 2.00289C14.8058 1.83759 13.3306 2.1735 12.0839 2.95564C10.8372 3.73779 9.89279 4.91987 9.40525 6.30852C8.91771 7.69717 8.91585 9.21016 9.4 10.6L2.586 17.414Z" stroke="black" stroke-width="2" stroke-linecap="round" stroke-linejoin="round"/>
<path d="M16.5 8C16.7761 8 17 7.77614 17 7.5C17 7.22386 16.7761 7 16.5 7C16.2239 7 16 7.22386 16 7.5C16 7.77614 16.2239 8 16.5 8Z" stroke="black" stroke-width="2" stroke-linecap="round" stroke-linejoin="round"/>
</svg>
