<svg width="24" height="24" viewBox="0 0 24 24" fill="none" xmlns="http://www.w3.org/2000/svg">
<path d="M8.714 14H5.004C4.79433 14.0001 4.58999 14.0661 4.41987 14.1886C4.24976 14.3112 4.12247 14.4841 4.056 14.683L2.052 20.683C2.00176 20.8333 1.98797 20.9934 2.01176 21.1501C2.03555 21.3068 2.09623 21.4556 2.18882 21.5842C2.28141 21.7128 2.40324 21.8176 2.54428 21.8899C2.68532 21.9622 2.84152 21.9999 3 22H21C21.1584 21.9999 21.3144 21.9621 21.4554 21.8899C21.5963 21.8177 21.7181 21.713 21.8106 21.5845C21.9032 21.456 21.9639 21.3074 21.9878 21.1508C22.0117 20.9942 21.998 20.8343 21.948 20.684L19.948 14.684C19.8817 14.4848 19.7543 14.3115 19.584 14.1888C19.4136 14.066 19.209 13.9999 18.999 14H15.287M18 8C18 11.613 14.131 15.429 12.607 16.795C12.4327 16.9282 12.2194 17.0003 12 17.0003C11.7806 17.0003 11.5673 16.9282 11.393 16.795C9.87 15.429 6 11.613 6 8C6 6.4087 6.63214 4.88258 7.75736 3.75736C8.88258 2.63214 10.4087 2 12 2C13.5913 2 15.1174 2.63214 16.2426 3.75736C17.3679 4.88258 18 6.4087 18 8ZM14 8C14 9.10457 13.1046 10 12 10C10.8954 10 10 9.10457 10 8C10 6.89543 10.8954 6 12 6C13.1046 6 14 6.89543 14 8Z" stroke="black" stroke-width="2" stroke-linecap="round" stroke-linejoin="round"/>
</svg>
