<svg width="24" height="24" viewBox="0 0 24 24" fill="none" xmlns="http://www.w3.org/2000/svg">
<path d="M2.70003 10.3C2.47598 10.5239 2.29824 10.7896 2.17697 11.0822C2.0557 11.3748 1.99329 11.6883 1.99329 12.005C1.99329 12.3217 2.0557 12.6353 2.17697 12.9279C2.29824 13.2204 2.47598 13.4862 2.70003 13.71L10.29 21.3C10.5139 21.5241 10.7796 21.7018 11.0722 21.8231C11.3648 21.9444 11.6783 22.0068 11.995 22.0068C12.3117 22.0068 12.6253 21.9444 12.9179 21.8231C13.2104 21.7018 13.4762 21.5241 13.7 21.3L21.29 13.71C21.5141 13.4862 21.6918 13.2204 21.8131 12.9279C21.9344 12.6353 21.9968 12.3217 21.9968 12.005C21.9968 11.6883 21.9344 11.3748 21.8131 11.0822C21.6918 10.7896 21.5141 10.5239 21.29 10.3L13.7 2.71004C13.4762 2.48599 13.2104 2.30825 12.9179 2.18698C12.6253 2.06571 12.3117 2.0033 11.995 2.0033C11.6783 2.0033 11.3648 2.06571 11.0722 2.18698C10.7796 2.30825 10.5139 2.48599 10.29 2.71004L2.70003 10.3Z" stroke="black" stroke-width="2" stroke-linecap="round" stroke-linejoin="round"/>
</svg>
