<svg width="16" height="16" viewBox="0 0 16 16" fill="none" xmlns="http://www.w3.org/2000/svg">
<g clip-path="url(#clip0_1773_3221)">
<path d="M8.66678 4.66666L5.80011 1.79999C5.49903 1.50036 5.09155 1.33215 4.66678 1.33215C4.24201 1.33215 3.83453 1.50036 3.53345 1.79999L1.80011 3.53332C1.50048 3.83441 1.33228 4.24189 1.33228 4.66666C1.33228 5.09142 1.50048 5.49891 1.80011 5.79999L4.66678 8.66666M5.33345 3.99999L6.66678 2.66666M12.0001 10.6667L13.3334 9.33332M11.3334 7.33332L14.2001 10.2C14.8268 10.8267 14.8268 11.84 14.2001 12.4667L12.4668 14.2C11.8401 14.8267 10.8268 14.8267 10.2001 14.2L7.33345 11.3333M10.0001 3.33332L12.6668 5.99999M14.1161 4.54132C14.4686 4.18894 14.6666 3.71097 14.6667 3.21256C14.6668 2.71415 14.4688 2.23613 14.1164 1.88366C13.7641 1.53118 13.2861 1.33313 12.7877 1.33307C12.2893 1.33301 11.8113 1.53094 11.4588 1.88332L2.56145 10.7827C2.40666 10.937 2.29219 11.127 2.22811 11.336L1.34745 14.2373C1.33022 14.295 1.32891 14.3562 1.34368 14.4146C1.35844 14.4729 1.38873 14.5261 1.43131 14.5687C1.47389 14.6112 1.52719 14.6414 1.58555 14.656C1.64391 14.6707 1.70515 14.6693 1.76278 14.652L4.66478 13.772C4.87356 13.7085 5.06356 13.5947 5.21811 13.4407L14.1161 4.54132Z" stroke="#CCCCCC" stroke-linecap="round" stroke-linejoin="round"/>
</g>
<defs>
<clipPath id="clip0_1773_3221">
<rect width="16" height="16" fill="white"/>
</clipPath>
</defs>
</svg>
